<svg viewBox="0 0 24 24" fill="none" xmlns="http://www.w3.org/2000/svg">
  <rect width="24" height="24" rx="5" fill="#09090b" />
  <path 
    d="M12 5C10 3 6 3 4.5 6C3 10 3.5 13 4 15C4.5 17 5 18.5 4 21C6 21.5 8 20.5 10 19.5C11.5 18.5 12 18 12 18C12 18 12.5 18.5 14 19.5C16 20.5 18 21.5 20 21C19 18.5 19.5 17 20 15C20.5 13 21 10 19.5 6C18 3 14 3 12 5Z" 
    stroke="white" 
    strokeWidth="1.8" 
    strokeLinecap="round" 
    strokeLinejoin="round"
  />
  <path 
    d="M12 5V8" 
    stroke="white" 
    strokeWidth="1.5" 
    strokeLinecap="round"
    opacity="0.6"
  />
  <path 
    d="M12 5C12 5 13 1.5 17 2" 
    stroke="white" 
    strokeWidth="1.8" 
    strokeLinecap="round"
  />
</svg>
